<svg width="800" height="20" viewBox="0 0 800 20" xmlns="http://www.w3.org/2000/svg" shape-rendering="crispEdges">
  <style>
    .p { animation: tw 2s steps(2) infinite; }
    .d1 { animation-delay: 0.0s; } .d2 { animation-delay: 0.5s; } .d3 { animation-delay: 1.0s; } .d4 { animation-delay: 1.5s; }
    @keyframes tw { 50% { opacity: 0.25; } }
  </style>
  <g>
    <rect x="8"   y="8" width="4" height="4" fill="#CC785C" class="p d1"/><rect x="24"  y="8" width="4" height="4" fill="#FFB000" class="p d2"/><rect x="40"  y="8" width="4" height="4" fill="#F0EEE6" class="p d3"/><rect x="56"  y="8" width="4" height="4" fill="#FFB000" class="p d4"/><rect x="72"  y="8" width="4" height="4" fill="#CC785C" class="p d1"/><rect x="88"  y="8" width="4" height="4" fill="#FFB000" class="p d2"/><rect x="104" y="8" width="4" height="4" fill="#F0EEE6" class="p d3"/><rect x="120" y="8" width="4" height="4" fill="#FFB000" class="p d4"/><rect x="136" y="8" width="4" height="4" fill="#CC785C" class="p d1"/><rect x="152" y="8" width="4" height="4" fill="#FFB000" class="p d2"/><rect x="168" y="8" width="4" height="4" fill="#F0EEE6" class="p d3"/><rect x="184" y="8" width="4" height="4" fill="#FFB000" class="p d4"/><rect x="200" y="8" width="4" height="4" fill="#CC785C" class="p d1"/><rect x="216" y="8" width="4" height="4" fill="#FFB000" class="p d2"/><rect x="232" y="8" width="4" height="4" fill="#F0EEE6" class="p d3"/><rect x="248" y="8" width="4" height="4" fill="#FFB000" class="p d4"/><rect x="264" y="8" width="4" height="4" fill="#CC785C" class="p d1"/><rect x="280" y="8" width="4" height="4" fill="#FFB000" class="p d2"/><rect x="296" y="8" width="4" height="4" fill="#F0EEE6" class="p d3"/><rect x="312" y="8" width="4" height="4" fill="#FFB000" class="p d4"/><rect x="328" y="8" width="4" height="4" fill="#CC785C" class="p d1"/><rect x="344" y="8" width="4" height="4" fill="#FFB000" class="p d2"/><rect x="360" y="8" width="4" height="4" fill="#F0EEE6" class="p d3"/>
    <!-- center heart -->
    <g fill="#CC785C" class="p d2">
      <rect x="388" y="4" width="4" height="4"/><rect x="396" y="4" width="4" height="4"/>
      <rect x="384" y="8" width="16" height="4"/>
      <rect x="388" y="12" width="8" height="4"/>
    </g>
    <rect x="420" y="8" width="4" height="4" fill="#F0EEE6" class="p d3"/><rect x="436" y="8" width="4" height="4" fill="#FFB000" class="p d4"/><rect x="452" y="8" width="4" height="4" fill="#CC785C" class="p d1"/><rect x="468" y="8" width="4" height="4" fill="#FFB000" class="p d2"/><rect x="484" y="8" width="4" height="4" fill="#F0EEE6" class="p d3"/><rect x="500" y="8" width="4" height="4" fill="#FFB000" class="p d4"/><rect x="516" y="8" width="4" height="4" fill="#CC785C" class="p d1"/><rect x="532" y="8" width="4" height="4" fill="#FFB000" class="p d2"/><rect x="548" y="8" width="4" height="4" fill="#F0EEE6" class="p d3"/><rect x="564" y="8" width="4" height="4" fill="#FFB000" class="p d4"/><rect x="580" y="8" width="4" height="4" fill="#CC785C" class="p d1"/><rect x="596" y="8" width="4" height="4" fill="#FFB000" class="p d2"/><rect x="612" y="8" width="4" height="4" fill="#F0EEE6" class="p d3"/><rect x="628" y="8" width="4" height="4" fill="#FFB000" class="p d4"/><rect x="644" y="8" width="4" height="4" fill="#CC785C" class="p d1"/><rect x="660" y="8" width="4" height="4" fill="#FFB000" class="p d2"/><rect x="676" y="8" width="4" height="4" fill="#F0EEE6" class="p d3"/><rect x="692" y="8" width="4" height="4" fill="#FFB000" class="p d4"/><rect x="708" y="8" width="4" height="4" fill="#CC785C" class="p d1"/><rect x="724" y="8" width="4" height="4" fill="#FFB000" class="p d2"/><rect x="740" y="8" width="4" height="4" fill="#F0EEE6" class="p d3"/><rect x="756" y="8" width="4" height="4" fill="#FFB000" class="p d4"/><rect x="772" y="8" width="4" height="4" fill="#CC785C" class="p d1"/><rect x="788" y="8" width="4" height="4" fill="#FFB000" class="p d2"/>
  </g>
</svg>
